<svg xmlns="http://www.w3.org/2000/svg" viewBox="0 0 32 20">
  <path d="M29,0H3A3,3,0,0,0,0,3V17a3,3,0,0,0,3,3H29a3,3,0,0,0,3-3V3A3,3,0,0,0,29,0ZM14.4,15.9a9.15,9.15,0,0,1-1.7.1,6.45,6.45,0,0,1-2-.3,4.35,4.35,0,0,1-1.6-1A5.6,5.6,0,0,1,8,12.8,7.89,7.89,0,0,1,7.6,10a8.36,8.36,0,0,1,.5-2.9A5.16,5.16,0,0,1,9.3,5.2a4.25,4.25,0,0,1,1.7-1A9.91,9.91,0,0,1,12.8,4a8.62,8.62,0,0,1,1.7.1,8.11,8.11,0,0,1,1.1.3l-.4,1.9L14.3,6H13a2.7,2.7,0,0,0-2.2,1,4.47,4.47,0,0,0-.8,3,7.77,7.77,0,0,0,.2,1.6,3.1,3.1,0,0,0,.6,1.3,3.92,3.92,0,0,0,1,.8,3.19,3.19,0,0,0,1.4.3,5.28,5.28,0,0,0,1.3-.1,3.55,3.55,0,0,0,.9-.4l.5,1.8A9.38,9.38,0,0,1,14.4,15.9Zm8.7,0a9.15,9.15,0,0,1-1.7.1,6.45,6.45,0,0,1-2-.3,4.35,4.35,0,0,1-1.6-1,4,4,0,0,1-1.1-1.9,7.89,7.89,0,0,1-.4-2.8,8.36,8.36,0,0,1,.5-2.9A5.16,5.16,0,0,1,18,5.2a4.25,4.25,0,0,1,1.7-1A9.91,9.91,0,0,1,21.5,4a8.62,8.62,0,0,1,1.7.1,8.11,8.11,0,0,1,1.1.3l-.4,1.9L23,6H21.7a2.7,2.7,0,0,0-2.2,1,4.47,4.47,0,0,0-.8,3,7.77,7.77,0,0,0,.2,1.6,3.1,3.1,0,0,0,.6,1.3,3.92,3.92,0,0,0,1,.8,3.19,3.19,0,0,0,1.4.3,5.28,5.28,0,0,0,1.3-.1,3.55,3.55,0,0,0,.9-.4l.5,1.8A9.38,9.38,0,0,1,23.1,15.9Z" />
</svg>
